<?xml version="1.0" standalone="no"?>
<!DOCTYPE svg PUBLIC "-//W3C//DTD SVG 20010904//EN"
 "http://www.w3.org/TR/2001/REC-SVG-20010904/DTD/svg10.dtd">
<svg version="1.0" xmlns="http://www.w3.org/2000/svg"
 width="2512.000000pt" height="2525.000000pt" viewBox="0 0 2512.000000 2525.000000"
 preserveAspectRatio="xMidYMid meet">

<g transform="translate(0.000000,2525.000000) scale(0.100000,-0.100000)"
fill="#000000" stroke="none">
<path d="M37 25219 c7 -7 15 -10 18 -7 3 3 -2 9 -12 12 -14 6 -15 5 -6 -5z"/>
<path d="M19 25173 l-24 -28 28 24 c25 23 32 31 24 31 -2 0 -14 -12 -28 -27z"/>
<path d="M11295 20789 c-1388 -77 -2762 -422 -3920 -983 -1745 -847 -2930
-2145 -3379 -3702 -277 -963 -285 -1997 -24 -3124 73 -317 172 -639 293 -960
104 -275 162 -481 210 -755 190 -1082 15 -2260 -504 -3373 -145 -311 -314
-612 -541 -962 -205 -316 -337 -548 -470 -823 -274 -567 -438 -1109 -507
-1667 -22 -181 -25 -679 -5 -840 101 -816 411 -1458 963 -1995 280 -272 547
-458 914 -636 461 -224 934 -346 1505 -390 307 -23 792 1 1113 56 1070 184
2093 682 3027 1474 141 120 126 106 585 527 2568 2349 3761 3267 5152 3963
748 374 1489 665 3263 1281 569 198 717 254 925 354 460 221 845 491 1209 846
224 219 369 387 531 614 410 577 680 1251 785 1961 40 274 45 346 45 715 0
383 -6 472 -51 770 -319 2099 -1888 4104 -4454 5692 -1044 646 -2466 1329
-3285 1578 -692 210 -1414 334 -2219 380 -207 12 -941 11 -1161 -1z"/>
</g>
</svg>
